<?xml version="1.0" encoding="UTF-8" standalone="no"?>
<svg
   xmlns:dc="http://purl.org/dc/elements/1.1/"
   xmlns:cc="http://web.resource.org/cc/"
   xmlns:rdf="http://www.w3.org/1999/02/22-rdf-syntax-ns#"
   xmlns:svg="http://www.w3.org/2000/svg"
   xmlns="http://www.w3.org/2000/svg"
   xmlns:sodipodi="http://sodipodi.sourceforge.net/DTD/sodipodi-0.dtd"
   xmlns:inkscape="http://www.inkscape.org/namespaces/inkscape"
   width="215pt"
   height="149pt"
   viewBox="0 0 215 149"
   version="1.1"
   id="svg2"
   sodipodi:version="0.32"
   inkscape:version="0.45.1"
   sodipodi:docname="c14.svg"
   sodipodi:docbase="/home/museo8bits/oli"
   inkscape:output_extension="org.inkscape.output.svg.inkscape">
  <metadata
     id="metadata25">
    <rdf:RDF>
      <cc:Work
         rdf:about="">
        <dc:format>image/svg+xml</dc:format>
        <dc:type
           rdf:resource="http://purl.org/dc/dcmitype/StillImage" />
      </cc:Work>
    </rdf:RDF>
  </metadata>
  <defs
     id="defs23" />
  <sodipodi:namedview
     inkscape:window-height="627"
     inkscape:window-width="910"
     inkscape:pageshadow="2"
     inkscape:pageopacity="0.0"
     guidetolerance="10.0"
     gridtolerance="10.0"
     objecttolerance="10.0"
     borderopacity="1.0"
     bordercolor="#666666"
     pagecolor="#ffffff"
     id="base"
     inkscape:zoom="2.1852349"
     inkscape:cx="134.375"
     inkscape:cy="93.125"
     inkscape:window-x="0"
     inkscape:window-y="25"
     inkscape:current-layer="svg2" />
  <path
     fill="#ffffff"
     stroke="#ffffff"
     stroke-width="0.09375"
     d=" M 0.0 0.0 L 215.0 0.0 L 215.0 149.0 L 0.0 149.0 L 0.0 0.0 Z"
     id="path4" />
  <path
     fill="#060606"
     stroke="#060606"
     stroke-width="0.09375"
     d=" M 51.5 8.7 C 56.1 7.0 61.2 7.7 66.0 7.5 C 94.7 7.5 123.4 7.5 152.0 7.5 C 157.9 7.0 164.5 7.7 168.9 12.1 C 177.9 21.1 186.9 30.1 195.9 39.1 C 199.0 42.3 202.7 45.2 204.3 49.5 C 205.5 52.5 205.7 55.8 205.8 59.0 C 205.8 74.0 205.8 89.0 205.9 104.0 C 206.0 110.7 206.5 117.7 203.8 123.9 C 202.0 127.3 200.3 130.9 197.2 133.3 C 193.1 136.4 188.3 138.9 183.0 139.3 C 178.4 139.6 173.7 139.5 169.0 139.5 C 124.7 139.6 80.3 139.6 35.9 139.6 C 26.1 139.8 16.2 134.0 12.1 124.9 C 10.5 121.1 9.7 117.1 9.7 113.0 C 9.6 94.0 9.8 75.0 9.5 56.0 C 9.5 51.4 11.3 46.8 14.6 43.6 C 22.1 36.1 29.6 28.6 37.0 21.1 C 41.7 16.8 45.5 11.2 51.5 8.7 Z"
     id="path6" />
  <path
     fill="#ffffff"
     stroke="#ffffff"
     stroke-width="0.09375"
     d=" M 53.4 10.7 C 56.9 9.7 60.5 10.1 64.0 9.9 C 94.0 9.9 124.0 9.9 154.0 9.8 C 157.9 9.8 162.2 10.2 165.5 12.5 C 169.6 15.4 172.7 19.3 176.3 22.7 C 183.2 29.4 189.9 36.5 196.7 43.2 C 200.2 46.6 203.4 50.9 203.3 56.0 C 203.5 75.3 203.6 94.7 203.5 114.0 C 203.8 125.6 193.8 136.6 182.1 137.0 C 135.7 136.9 89.4 137.3 43.0 137.1 C 36.5 137.2 29.5 137.8 23.8 134.2 C 16.0 129.8 11.3 120.8 11.8 112.0 C 11.9 94.0 11.8 76.0 11.7 58.0 C 11.6 53.9 12.5 49.5 15.4 46.4 C 26.0 35.7 36.5 24.9 47.3 14.3 C 49.0 12.6 51.1 11.4 53.4 10.7 Z"
     id="path8"
     style="fill:#717171;fill-opacity:1" />
  <path
     fill="#060606"
     stroke="#060606"
     stroke-width="0.09375"
     d=" M 98.2 40.1 C 104.4 39.8 110.6 40.0 116.9 40.0 C 116.9 51.6 116.8 63.2 116.9 74.8 C 110.7 75.1 104.6 75.0 98.4 74.7 C 98.5 63.2 98.3 51.6 98.2 40.1 Z"
     id="path10" />
  <path
     fill="#ffffff"
     stroke="#ffffff"
     stroke-width="0.09375"
     d=" M 100.5 42.6 C 105.2 42.3 109.8 42.3 114.5 42.5 C 114.5 52.5 114.7 62.5 114.5 72.5 C 109.9 72.6 105.2 72.6 100.6 72.5 C 100.4 62.5 100.4 52.6 100.5 42.6 Z"
     id="path12" />
  <path
     fill="#060606"
     stroke="#060606"
     stroke-width="0.09375"
     d=" M 41.8 72.7 C 48.0 72.7 54.1 72.5 60.3 72.6 C 60.4 84.1 60.4 95.5 60.4 106.9 C 54.2 107.3 48.1 107.2 42.0 107.0 C 42.0 95.6 42.1 84.1 41.8 72.7 Z"
     id="path14" />
  <path
     fill="#060606"
     stroke="#060606"
     stroke-width="0.09375"
     d=" M 155.0 72.7 C 161.1 72.5 167.3 72.6 173.4 72.7 C 173.3 84.1 173.5 95.6 173.4 107.1 C 167.3 107.2 161.2 107.1 155.1 107.0 C 155.1 95.5 155.4 84.1 155.0 72.7 Z"
     id="path16" />
  <path
     fill="#ffffff"
     stroke="#ffffff"
     stroke-width="0.09375"
     d=" M 44.1 75.1 C 48.8 74.7 53.5 75.0 58.2 75.0 C 58.2 85.0 58.3 94.9 58.2 104.8 C 53.6 104.8 48.9 104.8 44.3 104.8 C 44.4 94.9 44.2 85.0 44.1 75.1 Z"
     id="path18" />
  <path
     fill="#ffffff"
     stroke="#ffffff"
     stroke-width="0.09375"
     d=" M 157.2 75.1 C 161.9 74.9 166.5 75.0 171.2 75.0 C 171.4 85.0 171.4 94.9 171.2 104.8 C 166.6 104.8 161.9 104.7 157.3 104.8 C 157.3 94.9 157.4 85.0 157.2 75.1 Z"
     id="path20" />
</svg>
